# AST/ASF file generated using VICON BodyLanguage
# -----------------------------------------------
:version 1.10
:name VICON
:units
  mass 1.0
  length 0.45
  angle deg
:documentation
   .ast/.asf automatically generated from VICON data using
   VICON BodyBuilder and BodyLanguage model FoxedUp or BRILLIANT.MOD
:root
   order TX TY TZ RX RY RZ
   axis XYZ
   position 0 0 0  
   orientation 0 0 0 
:bonedata
  begin
     id 1 
     name lhipjoint
     direction 0.567149 -0.783011 0.255413 
     length 2.28399 
     axis 0 0 0  XYZ
  end
  begin
     id 2 
     name lfemur
     direction 0.34202 -0.939693 0  
     length 7.34031  
     axis 0 0 20  XYZ
    dof rx ry rz
    limits (-160.0 20.0)
           (-70.0 70.0)
           (-60.0 70.0)
  end
  begin
     id 3 
     name ltibia
     direction 0.34202 -0.939693 0   
     length 6.9833   
     axis 0 0 20   XYZ
    dof rx
    limits (-10.0 170.0)
  end
  begin
     id 4 
     name lfoot
     direction 0.136498 -0.375025 0.91691   
     length 2.33665   
     axis -90 7.62852e-016 20   XYZ
    dof rx rz
    limits (-45.0 90.0)
           (-70.0 20.0)
  end
  begin
     id 5 
     name ltoes
     direction 1.5367e-011 -4.21617e-011 1   
     length 1.15039   
     axis -90 7.62852e-016 20   XYZ
    dof rx
    limits (-90.0 20.0)
  end
  begin
     id 6 
     name rhipjoint
     direction -0.602854 -0.758518 0.247423   
     length 2.35775  
     axis 0 0 0  XYZ 
  end
  begin
     id 7 
     name rfemur
     direction -0.34202 -0.939693 0   
     length 7.43932   
     axis 0 0 -20   XYZ
    dof rx ry rz
    limits (-160.0 20.0)
           (-70.0 70.0)
           (-70.0 60.0)
  end
  begin
     id 8 
     name rtibia
     direction -0.34202 -0.939693 0   
     length 7.11893   
     axis 0 0 -20   XYZ
    dof rx
    limits (-10.0 170.0)
 end
 begin
     id 9 
     name rfoot
     direction -0.131771 -0.362037 0.922803   
     length 2.53019  
     axis -90 -7.62852e-016 -20   XYZ
    dof rx rz
    limits (-45.0 90.0)
           (-20.0 70.0)
  end
  begin
     id 10 
     name rtoes
     direction -1.53733e-011 -4.21932e-011 1   
     length 1.24596   
     axis -90 -7.62852e-016 -20   XYZ
    dof rx
    limits (-90.0 20.0)
  end
  begin
     id 11 
     name lowerback
     direction 0.0235427 0.999023 -0.0374125   
     length 2.21768   
     axis 0 0 0   XYZ
    dof rx ry rz
    limits (-20.0 45.0)
           (-30.0 30.0)
           (-30.0 30.0)
  end
  begin
     id 12 
     name upperback
     direction 0.0302156 0.996818 -0.073759   
     length 2.20352   
     axis 0 0 0   XYZ
    dof rx ry rz
    limits (-20.0 45.0)
           (-30.0 30.0)
           (-30.0 30.0)
  end
  begin
     id 13 
     name thorax
     direction 0.0187169 0.998235 -0.0563532   
     length 2.22103   
     axis 0 0 0   XYZ
    dof rx ry rz
    limits (-20.0 45.0)
           (-30.0 30.0)
           (-30.0 30.0)
  end
  begin
     id 14 
     name lowerneck
     direction -0.119528 0.987423 0.103481   
     length 1.72948   
     axis 0 0 0   XYZ
    dof rx ry rz
    limits (-20.0 45.0)
           (-30.0 30.0)
           (-30.0 30.0)
  end
  begin
     id 15 
     name upperneck
     direction 0.248049 0.963095 -0.104496   
     length 1.74979   
     axis 0 0 0   XYZ
    dof rx ry rz
    limits (-20.0 45.0)
           (-30.0 30.0)
           (-30.0 30.0)
  end
  begin
     id 16
     name head
     direction 0.0903589 0.994284 -0.056876  
     length 1.78268  
     axis 0 0 0   XYZ
    dof rx ry rz
    limits (-20.0 45.0)
           (-30.0 30.0)
           (-30.0 30.0)
  end
  begin
     id 17 
     name lclavicle
     direction 0.946008 0.242039 -0.215608  
     length 3.80783  
     axis 0 0 0   XYZ
    dof ry rz
    limits (-20.0 10.0)
           (0.0 20.0)
  end
  begin
     id 18 
     name lhumerus
     direction 1 -4.48991e-011 -2.25695e-027   
     length 4.83125   
     axis 180 -30 -90   XYZ
    dof rx ry rz
    limits (-60.0 90.0)
           (-90.0 90.0)
           (-90.0 90.0)
  end
  begin
     id 19
     name lradius
     direction 0.999991 0.00366712 -0.00211721   
     length 3.00391   
     axis 180 -30 -90   XYZ
    dof rx
    limits (-10.0 170.0)
  end
  begin
     id 20
     name lwrist
     direction 0.999991 0.00393016 -0.00141978   
     length 1.50195   
     axis -1.00488e-014 90 90   XYZ
    dof ry
    limits (-180.0 0.0)
 end
  begin
     id 21 
     name lhand
     direction 1 -4.49123e-011 2.72098e-026   
     length 1.2717   
     axis -1.73687e-014 90 90   XYZ
    dof rx rz
    limits (-90.0 90.0)
           (-45.0 45.0)
  end
  begin
     id 22 
     name lfingers
     direction 1 -4.48678e-011 5.4479e-026   
     length 1.02528   
     axis -3.47372e-014 90 90   XYZ
    dof rx
    limits (0.0 90.0)
  end
  begin
     id 23
     name lthumb
     direction 0.707107 -6.34851e-011 0.707107   
     length 1.4721   
     axis -90 45 -1.62303e-014   XYZ
    dof rx rz
    limits (-45.0 45.0)
           (-45.0 45.0)
  end
  begin
     id 24 
     name rclavicle
     direction -0.981723 0.189447 -0.0181673   
     length 3.74989  
     axis 0 0 0   XYZ 
    dof ry rz
    limits (-10.0 20.0)
           (-20.0 0.0)
  end
  begin
     id 25 
     name rhumerus
     direction -1 -4.48985e-011 2.38206e-027  
     length 4.61118   
     axis 180 30 90   XYZ
    dof rx ry rz
    limits (-90.0 60.0)
           (-90.0 90.0)
           (-90.0 90.0)
  end
  begin
     id 26 
     name rradius
     direction -1 -4.48977e-011 7.41019e-027   
     length 2.91491   
     axis 180 30 90   XYZ
    dof rx
    limits (-10.0 170.0)
  end
  begin
     id 27 
     name rwrist
     direction -1 -4.48549e-011 1.3624e-026   
     length 1.45745   
     axis -1.00488e-014 -90 -90   XYZ
    dof ry
    limits (-180.0 0.0)
  end
  begin
     id 28
     name rhand
     direction -1 -4.49107e-011 2.72109e-026   
     length 1.30769   
     axis -1.73687e-014 -90 -90   XYZ
    dof rx rz
    limits (-90.0 90.0)
           (-45.0 45.0)
  end
  begin
     id 29
     name rfingers
     direction -1 -4.48919e-011 5.44468e-026   
     length 1.05429   
     axis -3.47372e-014 -90 -90   XYZ
    dof rx
    limits (0.0 90.0)
  end
  begin
     id 30
     name rthumb
     direction -0.707107 -6.35315e-011 0.707107   
     length 1.51376   
     axis -90 -45 1.62303e-014   XYZ
    dof rx rz
    limits (-45.0 45.0)
           (-45.0 45.0)
  end
:hierarchy
  begin
    root lhipjoint rhipjoint lowerback
    lhipjoint lfemur
    lfemur ltibia
    ltibia lfoot
    lfoot ltoes
    rhipjoint rfemur
    rfemur rtibia
    rtibia rfoot
    rfoot rtoes
    lowerback upperback
    upperback thorax
    thorax lowerneck lclavicle rclavicle
    lowerneck upperneck
    upperneck head
    lclavicle lhumerus
    lhumerus lradius
    lradius lwrist
    lwrist lhand lthumb
    lhand lfingers
    rclavicle rhumerus
    rhumerus rradius
    rradius rwrist
    rwrist rhand rthumb
    rhand rfingers
  end

#!OML:ASF X:\für Bonn\!DataBase\2005_08_11_Bastian_Final\c3d\Bastian.ASF
:FULLY-SPECIFIED
:DEGREES
1
root -11.3508 16.9287 9.48089 534.695 32.8545 -172.418
lowerback 29.7144 -7.16644 8.32282
upperback 18.2808 -2.43475 4.21338
thorax 4.19065 1.12094 0.768592
lowerneck -11.8884 -13.8962 -25.0125
upperneck -10.8679 -14.6942 30.5723
head 3.61184 -6.14513 12.7946
rclavicle -4.13472e-014 -4.21423e-014
rhumerus -14.8118 9.2902 -81.2577
rradius 50.2589
rwrist 5.9659
rhand -13.0066 6.21403
rfingers 7.12502
rthumb 13.0868 -23.3554
lclavicle -4.13472e-014 -4.21423e-014
lhumerus 1.32681 -17.6884 -274.918
lradius 25.835
lwrist -352.261
lhand -18.6816 -8.1393
lfingers 7.12502
lthumb 7.61248 21.7037
rfemur -12.9477 -11.3113 29.1682
rtibia 49.8004
rfoot -17.1273 -0.432032
rtoes -12.7498
lfemur -31.5854 -2.62726 -8.33051
ltibia 90.9352
lfoot 2.56461 -6.65003
ltoes -33.3299
2
root -11.2847 16.9329 9.44081 534.472 32.8819 -172.298
lowerback 29.8803 -7.01017 8.19275
upperback 18.2961 -2.23186 4.18804
thorax 4.15078 1.21985 0.763774
lowerneck -11.6145 -13.904 -25.0941
upperneck -10.9452 -14.7545 30.6596
head 3.58177 -6.19653 12.8425
rclavicle -2.94201e-014 -1.04163e-013
rhumerus -14.6736 9.40825 -81.3188
rradius 50.436
rwrist 6.23199
rhand -12.9668 6.29642
rfingers 7.12502
rthumb 13.1252 -23.2705
lclavicle -2.94201e-014 -1.04163e-013
lhumerus 0.876585 -17.7559 -274.848
lradius 25.0865
lwrist -351.958
lhand -18.4663 -8.01735
lfingers 7.12502
lthumb 7.82025 21.818
rfemur -12.1697 -11.5343 29.3025
rtibia 49.4441
rfoot -17.2885 -0.44521
rtoes -12.7588
lfemur -32.7682 -2.44453 -8.49365
ltibia 90.984
lfoot 2.31939 -6.66538
ltoes -33.4944
3
root -11.2182 16.9359 9.3998 534.209 32.9171 -172.176
lowerback 30.064 -6.85312 8.04196
upperback 18.3279 -2.02612 4.15915
thorax 4.12229 1.32188 0.765841
lowerneck -11.3583 -13.9079 -25.1937
upperneck -10.9944 -14.8098 30.7811
head 3.56775 -6.24341 12.907
rclavicle 6.99722e-014 -2.8625e-014
rhumerus -14.4975 9.55095 -81.3821
rradius 50.5455
rwrist 6.47845
rhand -12.9857 6.34684
rfingers 7.12502
rthumb 13.107 -23.2213
lclavicle 6.99722e-014 -2.8625e-014
lhumerus 0.402644 -17.9218 -274.828
lradius 24.3925
lwrist -351.557
lhand -18.1843 -7.87734
lfingers 7.12502
lthumb 8.09249 21.9477
rfemur -11.3515 -11.7445 29.431
rtibia 49.0973
rfoot -17.4375 -0.482398
rtoes -12.8538
lfemur -33.8548 -2.27658 -8.65492
ltibia 90.954
lfoot 2.12137 -6.71607
ltoes -33.7727
4
root -11.152 16.9386 9.35736 533.936 32.9431 -172.083
lowerback 30.2285 -6.70148 7.88263
upperback 18.3645 -1.83367 4.11813
thorax 4.10552 1.41746 0.762144
lowerneck -11.1474 -13.9295 -25.3442
upperneck -11.0178 -14.8803 30.9371
head 3.5816 -6.29207 12.9886
rclavicle -1.98785e-014 -2.94201e-014
rhumerus -14.3074 9.73034 -81.4414
rradius 50.6419
rwrist 6.73662
rhand -13.0469 6.38452
rfingers 7.12502
rthumb 13.048 -23.1874
lclavicle -1.98785e-014 -2.94201e-014
lhumerus -0.0919316 -18.1577 -274.815
lradius 23.723
lwrist -351.144
lhand -17.9906 -7.65113
lfingers 7.12502
lthumb 8.27936 22.1666
rfemur -10.5252 -11.901 29.5308
rtibia 48.7403
rfoot -17.5869 -0.526126
rtoes -12.7716
lfemur -34.8863 -2.13807 -8.84581
ltibia 90.8439
lfoot 1.96956 -6.81401
ltoes -34.237
5
root -11.0853 16.9408 9.31384 533.76 32.9728 -171.964
lowerback 30.3101 -6.53524 7.72917
upperback 18.3733 -1.64725 4.09484
thorax 4.09023 1.50221 0.772137
lowerneck -10.943 -13.9344 -25.4684
upperneck -11.0122 -14.9343 31.0402
head 3.5902 -6.3336 13.0483
rclavicle 3.10104e-014 -5.00937e-014
rhumerus -14.1392 9.95357 -81.512
rradius 50.7259
rwrist 6.96685
rhand -13.1398 6.36517
rfingers 7.12502
rthumb 12.9584 -23.2124
lclavicle 3.10104e-014 -5.00937e-014
lhumerus -0.598493 -18.2007 -274.759
lradius 22.9727
lwrist -350.929
lhand -17.6635 -7.50546
lfingers 7.12502
lthumb 8.59509 22.2996
rfemur -9.78908 -11.9881 29.6873
rtibia 48.3764
rfoot -17.7305 -0.669778
rtoes -12.8823
lfemur -35.9678 -2.00695 -8.99724
ltibia 90.6593
lfoot 1.94718 -6.9531
ltoes -34.5297
6
root -11.019 16.9451 9.26882 533.632 32.9943 -171.846
lowerback 30.3275 -6.36803 7.62101
upperback 18.3856 -1.46064 4.05675
thorax 4.10227 1.59111 0.742284
lowerneck -10.7616 -13.9528 -25.5754
upperneck -11.0151 -15.0014 31.1692
head 3.60654 -6.37924 13.1112
rclavicle -7.95139e-016 -5.64548e-014
rhumerus -13.9336 10.1184 -81.5929
rradius 50.7669
rwrist 7.18372
rhand -13.2433 6.31986
rfingers 7.12502
rthumb 12.8586 -23.264
lclavicle -7.95139e-016 -5.64548e-014
lhumerus -1.06772 -18.3358 -274.727
lradius 22.1892
lwrist -350.775
lhand -17.4416 -7.40744
lfingers 7.12502
lthumb 8.80917 22.3887
rfemur -9.09087 -11.9652 29.8673
rtibia 47.984
rfoot -17.8323 -0.847398
rtoes -12.692
lfemur -37.0421 -1.91264 -9.14124
ltibia 90.3854
lfoot 2.10629 -7.14483
ltoes -34.2778
7
root -10.9515 16.9502 9.22223 533.484 33.0294 -171.732
lowerback 30.3606 -6.18787 7.46655
upperback 18.3915 -1.26845 4.03386
thorax 4.10192 1.67677 0.750858
lowerneck -10.6297 -13.9592 -25.6456
upperneck -10.9513 -15.0564 31.2448
head 3.63515 -6.4163 13.1465
rclavicle 2.70347e-014 9.06458e-014
rhumerus -13.7356 10.3223 -81.6665
rradius 50.7785
rwrist 7.39885
rhand -13.3619 6.28118
rfingers 7.12502
rthumb 12.7443 -23.3099
lclavicle 2.70347e-014 9.06458e-014
lhumerus -1.56115 -18.389 -274.644
lradius 21.3989
lwrist -350.726
lhand -17.2353 -7.24972
lfingers 7.12502
lthumb 9.00829 22.5379
rfemur -8.34546 -11.8936 30.0503
rtibia 47.5713
rfoot -17.9664 -1.08037
rtoes -12.7219
lfemur -38.0136 -1.83147 -9.28856
ltibia 90.0126
lfoot 2.28272 -7.28993
ltoes -34.1796
8
root -10.8841 16.9552 9.17418 533.368 33.042 -171.613
lowerback 30.3204 -6.02143 7.34931
upperback 18.4075 -1.09597 3.99889
thorax 4.13948 1.75686 0.732174
lowerneck -10.489 -13.9607 -25.6375
upperneck -10.9192 -15.1057 31.2886
head 3.641 -6.45304 13.1573
rclavicle 7.07673e-014 8.42847e-014
rhumerus -13.5438 10.5282 -81.7465
rradius 50.813
rwrist 7.58655
rhand -13.4709 6.16709
rfingers 7.12502
rthumb 12.6392 -23.4305
lclavicle 7.07673e-014 8.42847e-014
lhumerus -2.04817 -18.563 -274.596
lradius 20.6308
lwrist -350.634
lhand -17.0822 -7.10031
lfingers 7.12502
lthumb 9.15601 22.6809
rfemur -7.61914 -11.769 30.2602
rtibia 47.1339
rfoot -18.1005 -1.38195
rtoes -12.7384
lfemur -38.9496 -1.75523 -9.43338
ltibia 89.5496
lfoot 2.53546 -7.40441
ltoes -34.0351
9
root -10.8168 16.9592 9.12439 533.234 33.0516 -171.496
lowerback 30.3055 -5.8594 7.20395
upperback 18.4186 -0.931277 3.98141
thorax 4.16201 1.82944 0.748674
lowerneck -10.4114 -13.9585 -25.6584
upperneck -10.8385 -15.1405 31.325
head 3.66777 -6.47612 13.1704
rclavicle -1.19271e-014 -5.24792e-014
rhumerus -13.333 10.7939 -81.7892
rradius 50.8015
rwrist 7.69197
rhand -13.6237 6.04753
rfingers 7.12502
rthumb 12.492 -23.5591
lclavicle -1.19271e-014 -5.24792e-014
lhumerus -2.59324 -18.7875 -274.503
lradius 19.9114
lwrist -350.58
lhand -17.0503 -6.89168
lfingers 7.12502
lthumb 9.1868 22.8882
rfemur -6.86804 -11.5912 30.4737
rtibia 46.68
rfoot -18.2028 -1.71456
rtoes -12.637
lfemur -39.7765 -1.70936 -9.58652
ltibia 88.9928
lfoot 2.78089 -7.49252
ltoes -34.0947
10
root -10.7484 16.9635 9.07311 533.096 33.0753 -171.435
lowerback 30.2532 -5.67897 7.01693
upperback 18.4187 -0.768886 3.93325
thorax 4.18608 1.89462 0.754187
lowerneck -10.4252 -13.9695 -25.6102
upperneck -10.6698 -15.1961 31.3464
head 3.73197 -6.50304 13.1551
rclavicle -7.87187e-014 -7.95139e-015
rhumerus -13.1415 11.0809 -81.8842
rradius 50.7926
rwrist 7.7193
rhand -13.8325 5.87611
rfingers 7.12502
rthumb 12.2906 -23.7427
lclavicle -7.87187e-014 -7.95139e-015
lhumerus -3.13217 -19.0588 -274.453
lradius 19.1735
lwrist -350.527
lhand -17.0129 -6.68576
lfingers 7.12502
lthumb 9.22289 23.0925
rfemur -6.11903 -11.3536 30.6544
rtibia 46.2145
rfoot -18.341 -2.08771
rtoes -12.5868
lfemur -40.5402 -1.6413 -9.78976
ltibia 88.3346
lfoot 3.05479 -7.54245
ltoes -34.0362
